<?xml version="1.0" encoding="utf-8"?>
<!-- Generator: Adobe Illustrator 21.0.0, SVG Export Plug-In . SVG Version: 6.00 Build 0)  -->
<svg version="1.1" id="Layer_1" xmlns="http://www.w3.org/2000/svg" xmlns:xlink="http://www.w3.org/1999/xlink" x="0px" y="0px"
	 width="50px" height="50px" viewBox="0 0 50 50" style="enable-background:new 0 0 50 50;" xml:space="preserve">
<style type="text/css">
	.st0{enable-background:new    ;}
	.st1{clip-path:url(#SVGID_2_);}
	.st2{clip-path:url(#SVGID_4_);}
	.st3{clip-path:url(#SVGID_6_);fill:#3c3d41;}
	.st4{clip-path:url(#SVGID_8_);}
	.st5{clip-path:url(#SVGID_10_);fill:#3c3d41;}
</style>
<g class="st0">
	<g>
		<defs>
			<rect id="SVGID_1_" x="7.4" y="5" width="35.2" height="40"/>
		</defs>
		<clipPath id="SVGID_2_">
			<use xlink:href="#SVGID_1_"  style="overflow:visible;"/>
		</clipPath>
		<g class="st1">
			<defs>
				<path id="SVGID_3_" d="M33.4,26.3c-0.7,0-1.3-0.6-1.3-1.3c0-0.7,0.6-1.3,1.3-1.3c0.7,0,1.3,0.6,1.3,1.3
					C34.7,25.7,34.2,26.3,33.4,26.3z M40,26h-1.2c-0.8-2.4-2.3-4.5-4.3-6.1c0-0.1,0-0.2,0-0.2c-0.4-1.5,0.1-2.9,0.7-3.8
					c0.4-0.7-0.1-1.6-0.9-1.5c-1.8,0.2-3,0.9-3.9,1.6c-0.6,0.5-1,1.2-1.2,2c-1.3,5.3-6.1,9.3-11.8,9.3c-2.8,0-5.3-0.9-7.4-2.5
					c-0.7,1.5-1.1,3.2-1.1,5c0,1,0.1,1.9,0.3,2.8c0,0,0,0,0,0c0.2,0.9,0.6,1.8,1,2.7c0.6,1.2,1.4,2.7,2.6,3.9c1.7,1.7,1.9,3.8,2,4.7
					v0.4v0v0c0,0.5,0.4,0.8,0.9,0.8H21c0.5,0,0.9-0.4,0.9-0.9v-1.3c0.8,0.1,1.6,0.2,2.3,0.2c0.6,0,1.2,0,1.8-0.1v1.2
					c0,0.5,0.4,0.9,0.9,0.9h5.3c0.5,0,0.9-0.4,0.9-0.9v-1.3c0-0.4,0.2-2.2,1.8-3.6c0.1,0,0.1-0.1,0.2-0.1c0,0,0,0,0,0
					c1.8-1.6,3.2-3.6,3.8-5.9H40c0.9,0,1.6-0.7,1.6-1.6v-3.9C41.6,26.7,40.9,26,40,26z"/>
			</defs>
			<clipPath id="SVGID_4_">
				<use xlink:href="#SVGID_3_"  style="overflow:visible;"/>
			</clipPath>
			<g class="st2">
				<defs>
					<rect id="SVGID_5_" x="7.4" y="5" width="33.6" height="40"/>
				</defs>
				<clipPath id="SVGID_6_">
					<use xlink:href="#SVGID_5_"  style="overflow:visible;"/>
				</clipPath>
				<rect x="1" y="6.3" class="st3" width="48.7" height="46.7"/>
			</g>
		</g>
		<g class="st1">
			<defs>
				<path id="SVGID_7_" d="M13.9,19c0.1-0.3,0.2-0.7,0.3-1c0.1-0.4,0.2-0.4,0.6-0.2c0.6,0.3,1.2,0.5,1.9,0.6c0.4,0.1,0.9,0,1.2-0.2
					c0.7-0.3,0.9-1.2,0.2-1.7c-0.2-0.2-0.5-0.3-0.7-0.4c-0.6-0.3-1.3-0.5-1.9-0.9c-1-0.6-1.6-1.4-1.6-2.6c0.1-1.4,0.9-2.2,2.1-2.7
					c0.5-0.2,0.5-0.2,0.5-0.7V8.7c0-0.4,0.1-0.5,0.5-0.5h0.4c0.9,0,0.9,0,0.9,0.9c0,0.6,0,0.6,0.6,0.7c0.5,0.1,0.9,0.2,1.3,0.4
					c0.2,0.1,0.3,0.3,0.3,0.5c-0.1,0.4-0.2,0.8-0.3,1.1c-0.1,0.4-0.2,0.4-0.6,0.2c-0.7-0.3-1.4-0.5-2.1-0.4c-0.2,0-0.4,0-0.6,0.1
					c-0.6,0.3-0.8,1-0.2,1.4c0.3,0.2,0.6,0.4,0.9,0.5c0.6,0.2,1.1,0.5,1.7,0.8c1.7,1,2.2,3.1,1,4.6c-0.4,0.5-1,0.9-1.7,1.1
					c-0.3,0.1-0.4,0.2-0.4,0.5c0,0.3,0,0.6,0,0.9c0,0.3-0.1,0.4-0.4,0.4c-0.3,0-0.6,0-1,0c-0.3,0-0.4-0.2-0.4-0.4c0-0.2,0-0.4,0-0.6
					c0-0.5,0-0.5-0.5-0.6c-0.6-0.1-1.2-0.2-1.7-0.5C13.9,19.6,13.8,19.5,13.9,19z M17.5,25.1c5.6,0,10.1-4.5,10.1-10.1
					C27.5,9.5,23,5,17.5,5S7.4,9.5,7.4,15.1C7.4,20.6,11.9,25.1,17.5,25.1z"/>
			</defs>
			<clipPath id="SVGID_8_">
				<use xlink:href="#SVGID_7_"  style="overflow:visible;"/>
			</clipPath>
			<g class="st4">
				<defs>
					<rect id="SVGID_9_" x="7.4" y="5" width="33.6" height="40"/>
				</defs>
				<clipPath id="SVGID_10_">
					<use xlink:href="#SVGID_9_"  style="overflow:visible;"/>
				</clipPath>
				<rect x="-0.6" y="-3" class="st5" width="36.1" height="36.1"/>
			</g>
		</g>
	</g>
</g>
</svg>
